<svg width="24" height="24" viewBox="0 0 24 24" fill="none" xmlns="http://www.w3.org/2000/svg">
<path fill-rule="evenodd" clip-rule="evenodd" d="M12 21.75C11.5858 21.75 11.25 21.4142 11.25 21V17.6569C11.25 17.2427 11.5858 16.9069 12 16.9069C12.4142 16.9069 12.75 17.2427 12.75 17.6569V21C12.75 21.4142 12.4142 21.75 12 21.75ZM12 7.09345C11.5858 7.09345 11.25 6.75766 11.25 6.34345V3.00003C11.25 2.58582 11.5858 2.25003 12 2.25003C12.4142 2.25003 12.75 2.58582 12.75 3.00003V6.34345C12.75 6.75766 12.4142 7.09345 12 7.09345ZM5.10595 17.8336C4.81306 18.1265 4.81306 18.6014 5.10595 18.8943C5.39884 19.1872 5.87372 19.1872 6.16661 18.8943L8.53057 16.5303C8.82346 16.2374 8.82346 15.7626 8.53057 15.4697C8.23768 15.1768 7.7628 15.1768 7.46991 15.4697L5.10595 17.8336ZM15.4697 7.46987C15.1768 7.76276 15.1768 8.23764 15.4697 8.53053C15.7626 8.82342 16.2375 8.82342 16.5304 8.53053L18.8945 6.16638C19.1874 5.87349 19.1874 5.39861 18.8945 5.10572C18.6016 4.81283 18.1268 4.81283 17.8339 5.10572L15.4697 7.46987ZM3 11.25C2.58579 11.25 2.25 11.5858 2.25 12C2.25 12.4142 2.58579 12.75 3 12.75H6.34315C6.75736 12.75 7.09315 12.4142 7.09315 12C7.09315 11.5858 6.75736 11.25 6.34315 11.25H3ZM17.6566 11.25C17.2424 11.25 16.9066 11.5858 16.9066 12C16.9066 12.4142 17.2424 12.75 17.6566 12.75H21C21.4142 12.75 21.75 12.4142 21.75 12C21.75 11.5858 21.4142 11.25 21 11.25H17.6566ZM17.8337 18.8943C18.1266 19.1872 18.6014 19.1872 18.8943 18.8943C19.1872 18.6014 19.1872 18.1265 18.8943 17.8336L16.5304 15.4697C16.2375 15.1768 15.7626 15.1768 15.4697 15.4697C15.1768 15.7626 15.1768 16.2374 15.4697 16.5303L17.8337 18.8943ZM7.46991 8.53053C7.76281 8.82342 8.23768 8.82342 8.53057 8.53053C8.82347 8.23764 8.82347 7.76276 8.53057 7.46987L6.16642 5.10572C5.87353 4.81283 5.39865 4.81283 5.10576 5.10572C4.81287 5.39861 4.81287 5.87349 5.10576 6.16638L7.46991 8.53053Z" fill="white"/>
</svg>
