<svg width="24" height="24" viewBox="0 0 24 24" fill="none" xmlns="http://www.w3.org/2000/svg">
<path fill-rule="evenodd" clip-rule="evenodd" d="M12 21.75C11.5858 21.75 11.25 21.4142 11.25 21V17.6569C11.25 17.2426 11.5858 16.9069 12 16.9069C12.4142 16.9069 12.75 17.2426 12.75 17.6569V21C12.75 21.4142 12.4142 21.75 12 21.75ZM12 7.09342C11.5858 7.09342 11.25 6.75763 11.25 6.34342V3C11.25 2.58579 11.5858 2.25 12 2.25C12.4142 2.25 12.75 2.58579 12.75 3V6.34342C12.75 6.75763 12.4142 7.09342 12 7.09342ZM5.10598 17.8336C4.81309 18.1265 4.81309 18.6014 5.10598 18.8943C5.39887 19.1872 5.87375 19.1872 6.16664 18.8943L8.5306 16.5303C8.8235 16.2374 8.8235 15.7625 8.5306 15.4696C8.23771 15.1768 7.76284 15.1768 7.46994 15.4696L5.10598 17.8336ZM15.4697 7.46984C15.1769 7.76273 15.1769 8.23761 15.4697 8.5305C15.7626 8.82339 16.2375 8.82339 16.5304 8.5305L18.8946 6.16635C19.1875 5.87346 19.1875 5.39858 18.8946 5.10569C18.6017 4.81279 18.1268 4.8128 17.8339 5.10569L15.4697 7.46984ZM3.00003 11.25C2.58582 11.25 2.25003 11.5858 2.25003 12C2.25003 12.4142 2.58582 12.75 3.00003 12.75H6.34318C6.75739 12.75 7.09318 12.4142 7.09318 12C7.09318 11.5858 6.75739 11.25 6.34318 11.25H3.00003ZM17.6566 11.25C17.2424 11.25 16.9066 11.5858 16.9066 12C16.9066 12.4142 17.2424 12.75 17.6566 12.75H21C21.4142 12.75 21.75 12.4142 21.75 12C21.75 11.5858 21.4142 11.25 21 11.25H17.6566ZM17.8337 18.8943C18.1266 19.1872 18.6015 19.1872 18.8944 18.8943C19.1873 18.6014 19.1873 18.1265 18.8944 17.8336L16.5304 15.4696C16.2375 15.1768 15.7626 15.1768 15.4698 15.4696C15.1769 15.7625 15.1769 16.2374 15.4698 16.5303L17.8337 18.8943ZM7.46994 8.5305C7.76284 8.82339 8.23771 8.82339 8.5306 8.5305C8.8235 8.23761 8.8235 7.76273 8.5306 7.46984L6.16645 5.10569C5.87356 4.8128 5.39869 4.8128 5.10579 5.10569C4.8129 5.39858 4.8129 5.87346 5.10579 6.16635L7.46994 8.5305Z" fill="#808080"/>
</svg>
